<?xml version="1.0" encoding="UTF-8" standalone="no"?>
<!-- Created with Inkscape (http://www.inkscape.org/) -->

<svg
   xmlns:dc="http://purl.org/dc/elements/1.1/"
   xmlns:cc="http://creativecommons.org/ns#"
   xmlns:rdf="http://www.w3.org/1999/02/22-rdf-syntax-ns#"
   xmlns:svg="http://www.w3.org/2000/svg"
   xmlns="http://www.w3.org/2000/svg"
   xmlns:xlink="http://www.w3.org/1999/xlink"
   xmlns:sodipodi="http://sodipodi.sourceforge.net/DTD/sodipodi-0.dtd"
   xmlns:inkscape="http://www.inkscape.org/namespaces/inkscape"
   width="34.105949mm"
   height="34.105949mm"
   viewBox="0 0 34.105949 34.10595"
   version="1.1"
   id="svg8"
   inkscape:version="0.92.3 (2405546, 2018-03-11)"
   sodipodi:docname="logo.svg"
   inkscape:export-filename="/home/mjs/clients/gcal-plugin/logos/logo128.png"
   inkscape:export-xdpi="95.330002"
   inkscape:export-ydpi="95.330002">
  <defs
     id="defs2">
    <linearGradient
       inkscape:collect="always"
       id="linearGradient919">
      <stop
         style="stop-color:#a0ccf9;stop-opacity:0.9927361"
         offset="0"
         id="stop915" />
      <stop
         style="stop-color:#ffffff;stop-opacity:1"
         offset="1"
         id="stop917" />
    </linearGradient>
    <linearGradient
       inkscape:collect="always"
       xlink:href="#linearGradient919"
       id="linearGradient921"
       x1="203.08235"
       y1="124.8777"
       x2="203.08235"
       y2="174.16341"
       gradientUnits="userSpaceOnUse" />
  </defs>
  <sodipodi:namedview
     id="base"
     pagecolor="#ffffff"
     bordercolor="#666666"
     borderopacity="1.0"
     inkscape:pageopacity="0.0"
     inkscape:pageshadow="2"
     inkscape:zoom="7.9195959"
     inkscape:cx="20.21327"
     inkscape:cy="65.769447"
     inkscape:document-units="mm"
     inkscape:current-layer="g964"
     showgrid="false"
     fit-margin-top="0.5"
     fit-margin-left="0.5"
     fit-margin-bottom="0.5"
     fit-margin-right="0.5"
     inkscape:window-width="3066"
     inkscape:window-height="1689"
     inkscape:window-x="134"
     inkscape:window-y="55"
     inkscape:window-maximized="1" />
  <metadata
     id="metadata5">
    <rdf:RDF>
      <cc:Work
         rdf:about="">
        <dc:format>image/svg+xml</dc:format>
        <dc:type
           rdf:resource="http://purl.org/dc/dcmitype/StillImage" />
        <dc:title />
      </cc:Work>
    </rdf:RDF>
  </metadata>
  <g
     inkscape:label="Layer 1"
     inkscape:groupmode="layer"
     id="layer1"
     transform="translate(-31.705951,-30.104766)">
    <g
       id="g964"
       transform="translate(0,-1.1339253)">
      <path
         inkscape:connector-curvature="0"
         id="path817"
         d="m 34.505952,33.172619 h 28.505949 c 1.108,0 2.000001,0.892 2.000001,2.000001 v 26.238092 c 0,1.108001 -0.892001,2.000001 -2.000001,2.000001 H 34.505952 c -1.108001,0 -2.000001,-0.892 -2.000001,-2.000001 V 35.17262 c 0,-1.108001 0.892,-2.000001 2.000001,-2.000001 z"
         style="fill:#000000;fill-rule:evenodd;stroke:#000000;stroke-width:0.60000002;stroke-linecap:butt;stroke-linejoin:miter;stroke-miterlimit:4;stroke-dasharray:none;stroke-opacity:1;fill-opacity:1" />
      <path
         style="opacity:1;vector-effect:none;fill:#cdcdcd;fill-opacity:1;stroke:none;stroke-width:1.13385832;stroke-linecap:butt;stroke-linejoin:miter;stroke-miterlimit:4;stroke-dasharray:none;stroke-dashoffset:0;stroke-opacity:1"
         d="m 52.166016,35.382812 c 0,28.334636 0,56.669272 0,85.003908 22.589191,-0.0313 45.178383,-0.0625 67.767574,-0.0937 l 1.02539,-0.50195 c 1.30549,-0.6409 2.47434,-1.80975 3.11524,-3.11524 l 0.50195,-1.02539 c 0.12258,-26.759679 0.0898,-53.457036 0.0898,-80.267578 -24.16667,0 -48.333336,0 -72.500004,0 z"
         id="path831"
         inkscape:connector-curvature="0"
         sodipodi:nodetypes="cccccccc"
         transform="matrix(0.26458333,0,0,0.26458333,31.705951,31.238691)" />
      <path
         style="opacity:0.95999995;vector-effect:none;fill:#ffffff;fill-opacity:1;stroke:none;stroke-width:1.13385832;stroke-linecap:butt;stroke-linejoin:miter;stroke-miterlimit:4;stroke-dasharray:none;stroke-dashoffset:0;stroke-opacity:1"
         d="m 4.4453125,35.308594 v 60.714844 0.552734 c 0,15.768138 0.088507,19.294718 0.5039063,20.089848 0.6478287,1.24004 2.2829542,2.78859 3.4238281,3.24218 3.0786831,0.66192 8.8053311,0.36484 21.6972651,0.37891 l 20.802735,0.0215 V 35.308614 H 4.4453125 Z"
         id="path824"
         inkscape:connector-curvature="0"
         sodipodi:nodetypes="ccsccccccc"
         transform="matrix(0.26458333,0,0,0.26458333,31.705951,31.238691)" />
      <path
         inkscape:connector-curvature="0"
         id="path901"
         d="M 122.85669,194.66253 H 245.71466"
         style="fill:none;fill-rule:evenodd;stroke:#000000;stroke-width:1.8897638;stroke-linecap:butt;stroke-linejoin:miter;stroke-miterlimit:4;stroke-dasharray:none;stroke-opacity:1"
         transform="scale(0.26458333)" />
      <path
         transform="scale(0.26458333)"
         inkscape:connector-curvature="0"
         id="path905"
         d="m 124.14207,141.31405 c 0,-9.43985 0.008,-9.65721 0.38616,-10.66964 0.5338,-1.42862 2.1665,-3.06046 3.59677,-3.59488 l 1.03649,-0.38728 55.39208,0.0458 55.39207,0.0458 0.83257,0.41014 c 1.33475,0.65753 2.39544,1.71401 3.0448,3.0327 l 0.58692,1.1919 0.0505,9.78085 0.0505,9.78084 h -60.18439 -60.18439 z"
         style="opacity:0.96;vector-effect:none;fill:url(#linearGradient921);fill-opacity:1;stroke:none;stroke-width:1.13385832;stroke-linecap:butt;stroke-linejoin:miter;stroke-miterlimit:4;stroke-dasharray:none;stroke-dashoffset:0;stroke-opacity:1" />
      <path
         inkscape:connector-curvature="0"
         transform="scale(0.26458333)"
         id="path891"
         d="m 171.42856,152.16225 v 87.5"
         style="fill:none;fill-rule:evenodd;stroke:#000000;stroke-width:1.8897638;stroke-linecap:butt;stroke-linejoin:miter;stroke-miterlimit:4;stroke-dasharray:none;stroke-opacity:1" />
      <path
         inkscape:connector-curvature="0"
         style="fill:none;fill-rule:evenodd;stroke:#000000;stroke-width:2.26771665;stroke-linecap:butt;stroke-linejoin:miter;stroke-miterlimit:4;stroke-dasharray:none;stroke-opacity:1"
         d="M 122.85826,152.16254 H 245.71567"
         id="path885"
         transform="scale(0.26458333)" />
    </g>
  </g>
</svg>
